Coordinates
version=1
nRows=9
nColumns=63
inDegrees=yes

Units are S.I. units (second, meters, Newtons, ...)
If the header above contains a line with 'inDegrees', this indicates whether rotational values are in degrees (yes) or radians (no).

endheader
time	pelvis_tilt	pelvis_list	pelvis_rotation	pelvis_tx	pelvis_ty	pelvis_tz	hip_flexion_r	hip_adduction_r	hip_rotation_r	knee_angle_r	knee_angle_r_beta	ankle_angle_r	subtalar_angle_r	mtp_angle_r	hip_flexion_l	hip_adduction_l	hip_rotation_l	knee_angle_l	knee_angle_l_beta	ankle_angle_l	subtalar_angle_l	mtp_angle_l	L5_S1_Flex_Ext	L5_S1_Lat_Bending	L5_S1_axial_rotation	L4_L5_Flex_Ext	L4_L5_Lat_Bending	L4_L5_axial_rotation	L3_L4_Flex_Ext	L3_L4_Lat_Bending	L3_L4_axial_rotation	L2_L3_Flex_Ext	L2_L3_Lat_Bending	L2_L3_axial_rotation	L1_L2_Flex_Ext	L1_L2_Lat_Bending	L1_L2_axial_rotation	L1_T12_Flex_Ext	L1_T12_Lat_Bending	L1_T12_axial_rotation	Abs_r3	Abs_r2	Abs_r1	Abs_t1	Abs_t2	neck_flexion	neck_bending	neck_rotation	arm_flex_r	arm_add_r	arm_rot_r	elbow_flex_r	pro_sup_r	wrist_flex_r	wrist_dev_r	arm_flex_l	arm_add_l	arm_rot_l	elbow_flex_l	pro_sup_l	wrist_flex_l	wrist_dev_l
      4.55000000	      5.33526801	     -3.79262504	     85.90254224	      0.13493332	      0.96253186	      0.34597096	     -2.68104313	      2.81730621	     -6.59947851	      5.96209898	      0.10405826	     34.70393929	     12.77081237	      0.00000000	     -1.66809048	     -0.05365670	     -8.17474168	     11.17679616	      0.19507189	     29.63386380	     -6.37943047	      0.00000000	      0.13721164	     -0.13464967	      1.69877146	      0.25481574	     -0.17908406	      1.80494468	      0.22542501	     -0.32738721	      1.80494468	      0.15681918	     -0.32738721	      1.48642503	      0.12741473	     -0.27457761	      1.38025181	      0.07840273	     -0.20857234	      1.27407860	      0.98008903	     -1.52318401	      9.44805724	      0.00000000	      0.00000000	      2.62808347	      5.55072354	     -0.33734347	    -19.34961517	    -17.32765696	     17.92626529	    113.85337569	     87.54630575	      6.93046044	     26.31435965	    -25.01199742	    -17.54001518	      7.02734712	    113.13529657	     87.87564029	     14.85981138	      5.55250605
      4.56666667	      5.44226545	     -3.83842716	     85.94430286	      0.13468067	      0.96286172	      0.34641287	     -2.38120658	      2.87008757	     -6.66744069	      6.25584015	      0.10918501	     34.88501219	     12.67704679	      0.00000000	     -1.58467333	     -0.16250872	     -8.15959348	     11.14889647	      0.19458495	     29.93432532	     -6.29826713	      0.00000000	      0.14208901	     -0.11931517	      1.68116535	      0.26387351	     -0.15868918	      1.78623819	      0.23343804	     -0.29010291	      1.78623819	      0.16239353	     -0.29010291	      1.47101968	      0.13194386	     -0.24330750	      1.36594685	      0.08118966	     -0.18481920	      1.26087401	      1.01492761	     -1.34971709	      9.35013733	      0.00000000	      0.00000000	      2.57383760	      5.52609069	     -0.24966563	    -18.74930812	    -17.36097231	     18.09359333	    113.57536330	     87.31860122	      6.93744004	     26.25260526	    -25.02668483	    -17.83930077	      7.54512617	    114.03575598	     87.75495763	     14.93381498	      5.90217818
      4.58333333	      5.52581023	     -3.94679416	     86.17361476	      0.13406781	      0.96290641	      0.34750098	     -1.78778450	      2.88150158	     -7.02391217	      6.88079837	      0.12009259	     35.27539030	     12.41521468	      0.00000000	     -1.21722721	     -0.32639364	     -8.49316068	     11.45740186	      0.19996939	     30.51638847	     -5.60355582	      0.00000000	      0.14068154	     -0.10006346	      1.62142240	      0.26125969	     -0.13308440	      1.72276130	      0.23112571	     -0.24329429	      1.72276130	      0.16078493	     -0.24329429	      1.41874460	      0.13063688	     -0.20404940	      1.31740570	      0.08038543	     -0.15499830	      1.21606680	      1.00487419	     -1.13193785	      9.01786497	      0.00000000	      0.00000000	      2.85113500	      5.33901751	      0.34656817	    -18.04972651	    -17.44678375	     18.32232559	    113.34651532	     86.33981340	      6.94080813	     26.59727461	    -24.55438682	    -18.01767884	      8.27385752	    115.48355549	     87.03427731	     14.38413796	      9.76903574
      4.60000000	      5.64708404	     -4.03616620	     86.20268775	      0.13371896	      0.96291478	      0.34790177	     -1.49512844	      2.94904106	     -7.25502881	      7.04693377	      0.12299220	     35.43743931	     12.40984075	      0.00000000	     -1.07676742	     -0.50265536	     -9.01707165	     11.51483663	      0.20097181	     31.03763104	     -4.85867798	      0.00000000	      0.14186052	     -0.07416783	      1.61572573	      0.26344918	     -0.09864321	      1.71670859	      0.23306265	     -0.18033165	      1.71670859	      0.16213239	     -0.18033165	      1.41376002	      0.13173168	     -0.15124303	      1.31277716	      0.08105910	     -0.11488596	      1.21179430	      1.01329553	     -0.83900128	      8.98618181	      0.00000000	      0.00000000	      3.47577627	      4.95643046	      0.51396665	    -17.59382973	    -17.46317610	     18.51293179	    113.26628929	     85.37394598	      6.92972084	     27.58731535	    -23.52593011	    -18.29154804	      9.67180520	    116.83549746	     85.48765692	     13.33145009	     14.61184837
      4.61666667	      5.69750411	     -4.18314154	     86.27403753	      0.13333347	      0.96278993	      0.34843604	     -1.08068599	      2.94170440	     -7.51456153	      7.35230812	      0.12832198	     35.61949378	     12.38254316	      0.00000000	     -0.81607331	     -0.60332808	     -9.36454302	     11.63990701	      0.20315470	     31.48282761	     -4.30966374	      0.00000000	      0.14733891	     -0.05127997	      1.60008638	      0.27362309	     -0.06820236	      1.70009178	      0.24206309	     -0.12468213	      1.70009178	      0.16839364	     -0.12468213	      1.40007558	      0.13681891	     -0.10457012	      1.30007018	      0.08418945	     -0.07943268	      1.20006478	      1.05242710	     -0.58008932	      8.89920042	      0.00000000	      0.00000000	      4.26244964	      4.45334257	      0.73275096	    -17.15467478	    -17.45251688	     18.85571416	    113.21098760	     83.69691358	      6.73875161	     28.68751517	    -22.09886923	    -18.55152491	     11.53501804	    117.82499639	     82.20770599	     10.79245719	     19.15715993
      4.63333333	      5.70291306	     -4.32402606	     86.36892141	      0.13292439	      0.96266475	      0.34901483	     -0.68387680	      2.90234304	     -7.79590162	      7.67310770	      0.13392099	     35.76036460	     12.35008520	      0.00000000	     -0.54947644	     -0.64743014	     -9.49241925	     11.74078137	      0.20491529	     31.84103712	     -3.82668319	      0.00000000	      0.14872413	     -0.02979943	      1.60551631	      0.27619559	     -0.03963324	      1.70586108	      0.24433888	     -0.07245433	      1.70586108	      0.16997681	     -0.07245433	      1.40482678	      0.13810523	     -0.06076700	      1.30448201	      0.08498097	     -0.04615932	      1.20413724	      1.06232160	     -0.33709712	      8.92940009	      0.00000000	      0.00000000	      5.10512502	      3.93130647	      0.79975921	    -16.84830172	    -17.46729943	     19.26595270	    113.35883352	     81.31715445	      6.31260790	     29.84983380	    -20.21945911	    -18.81245288	     13.72783848	    118.42542632	     78.42369265	      7.39337004	     22.87634831
      4.65000000	      5.66512454	     -4.42236817	     86.48412056	      0.13239518	      0.96265630	      0.34955772	     -0.31571433	      2.81396261	     -8.04440915	      8.05229820	      0.14053912	     35.90502927	     12.30315114	      0.00000000	     -0.31959747	     -0.63764896	     -9.59758234	     11.82276173	      0.20634612	     32.19378015	     -3.20191152	      0.00000000	      0.14160475	     -0.01180025	      1.62781361	      0.26297418	     -0.01569433	      1.72955196	      0.23264244	     -0.02869112	      1.72955196	      0.16184007	     -0.02869112	      1.42433691	      0.13149417	     -0.02406306	      1.32259856	      0.08091295	     -0.01827858	      1.22086021	      1.01146855	     -0.13348675	      9.05341095	      0.00000000	      0.00000000	      5.87916316	      3.59334491	      0.62781429	    -16.66604723	    -17.52846258	     19.68921369	    113.71167545	     78.35280163	      5.76571138	     30.79881635	    -18.12939333	    -18.95549122	     15.79839200	    118.56996673	     75.69287882	      4.31618606	     24.96398813
      4.66666667	      5.65054264	     -4.54254487	     86.62194981	      0.13163571	      0.96269250	      0.34999096	      0.06774741	      2.74326157	     -8.25303117	      8.43805259	      0.14727180	     36.02442830	     12.25241490	      0.00000000	     -0.07115112	     -0.66153802	     -9.87280385	     11.88982882	      0.20751666	     32.56247746	     -2.18423933	      0.00000000	      0.13788596	      0.00968636	      1.65464795	      0.25606801	      0.01288286	      1.75806344	      0.22653284	      0.02355142	      1.75806344	      0.15758986	      0.02355142	      1.44781695	      0.12804090	      0.01975243	      1.34440146	      0.07878804	      0.01500417	      1.24098596	      0.98490560	      0.10957405	      9.20265549	      0.00000000	      0.00000000	      6.55070036	      3.54481417	      0.19874577	    -16.65940709	    -17.67032971	     20.09593210	    114.37837959	     75.00864773	      5.04648717	     31.51114177	    -16.17244981	    -18.87185389	     17.48692056	    118.34290793	     74.62185610	      2.08892523	     25.38071020
      4.68333333	      5.65284928	     -4.73104135	     86.86581781	      0.13070444	      0.96265678	      0.35040013	      0.50079235	      2.69579028	     -8.45068756	      8.79211891	      0.15345142	     36.13998179	     12.10137573	      0.00000000	      0.30351980	     -0.71058037	    -10.02057392	     12.03015230	      0.20996577	     32.84211644	     -1.18836547	      0.00000000	      0.14238644	      0.02930913	      1.65712388	      0.26442585	      0.03898115	      1.76069413	      0.23392668	      0.07126222	      1.76069413	      0.16273346	      0.07126222	      1.44998340	      0.13222004	      0.05976718	      1.34641316	      0.08135961	      0.04539984	      1.24284291	      1.01705208	      0.33155076	      9.21642591	      0.00000000	      0.00000000	      7.21711005	      3.96446329	     -0.53312377	    -16.86395638	    -17.81925684	     20.45578980	    115.39161309	     72.34944336	      4.12872598	     31.83609045	    -14.57012382	    -18.58343726	     18.53009527	    117.81495564	     75.25368882	      1.35621114	     24.45495842
